<mxfile host="Electron" modified="2023-04-15T22:54:22.315Z" agent="Mozilla/5.0 (Windows NT 10.0; Win64; x64) AppleWebKit/537.36 (KHTML, like Gecko) draw.io/21.1.2 Chrome/106.0.5249.199 Electron/21.4.3 Safari/537.36" etag="FQBuoJV-f8E7U3yhN3Aa" version="21.1.2" type="device">
  <diagram id="C5RBs43oDa-KdzZeNtuy" name="Page-1">
    <mxGraphModel dx="1050" dy="671" grid="1" gridSize="10" guides="1" tooltips="1" connect="1" arrows="1" fold="1" page="1" pageScale="1" pageWidth="827" pageHeight="1169" math="0" shadow="0">
      <root>
        <mxCell id="WIyWlLk6GJQsqaUBKTNV-0" />
        <mxCell id="WIyWlLk6GJQsqaUBKTNV-1" parent="WIyWlLk6GJQsqaUBKTNV-0" />
        <mxCell id="HEcna5ePVh_66aL4XZZc-2" value="" style="edgeStyle=none;curved=1;rounded=0;orthogonalLoop=1;jettySize=auto;html=1;fontSize=12;startSize=8;endSize=8;exitX=0.5;exitY=1;exitDx=0;exitDy=0;" edge="1" parent="WIyWlLk6GJQsqaUBKTNV-1" source="HEcna5ePVh_66aL4XZZc-8" target="HEcna5ePVh_66aL4XZZc-1">
          <mxGeometry relative="1" as="geometry">
            <mxPoint x="400" y="60" as="sourcePoint" />
          </mxGeometry>
        </mxCell>
        <mxCell id="HEcna5ePVh_66aL4XZZc-4" value="" style="edgeStyle=none;curved=1;rounded=0;orthogonalLoop=1;jettySize=auto;html=1;fontSize=12;startSize=8;endSize=8;exitX=1;exitY=0.5;exitDx=0;exitDy=0;" edge="1" parent="WIyWlLk6GJQsqaUBKTNV-1" source="HEcna5ePVh_66aL4XZZc-1" target="HEcna5ePVh_66aL4XZZc-3">
          <mxGeometry relative="1" as="geometry">
            <mxPoint x="770" y="300" as="sourcePoint" />
          </mxGeometry>
        </mxCell>
        <mxCell id="HEcna5ePVh_66aL4XZZc-6" value="" style="edgeStyle=none;curved=1;rounded=0;orthogonalLoop=1;jettySize=auto;html=1;fontSize=12;startSize=8;endSize=8;" edge="1" parent="WIyWlLk6GJQsqaUBKTNV-1" source="HEcna5ePVh_66aL4XZZc-1" target="HEcna5ePVh_66aL4XZZc-5">
          <mxGeometry relative="1" as="geometry" />
        </mxCell>
        <mxCell id="HEcna5ePVh_66aL4XZZc-1" value="What&#39;s the user choice" style="rhombus;whiteSpace=wrap;html=1;fontSize=16;rounded=1;" vertex="1" parent="WIyWlLk6GJQsqaUBKTNV-1">
          <mxGeometry x="310" y="240" width="180" height="120" as="geometry" />
        </mxCell>
        <mxCell id="HEcna5ePVh_66aL4XZZc-21" style="edgeStyle=none;curved=1;rounded=0;orthogonalLoop=1;jettySize=auto;html=1;exitX=1;exitY=0.5;exitDx=0;exitDy=0;fontSize=12;startSize=8;endSize=8;" edge="1" parent="WIyWlLk6GJQsqaUBKTNV-1" source="HEcna5ePVh_66aL4XZZc-15" target="HEcna5ePVh_66aL4XZZc-15">
          <mxGeometry relative="1" as="geometry">
            <mxPoint x="750" y="480" as="targetPoint" />
          </mxGeometry>
        </mxCell>
        <mxCell id="HEcna5ePVh_66aL4XZZc-25" value="" style="edgeStyle=none;curved=1;rounded=0;orthogonalLoop=1;jettySize=auto;html=1;fontSize=12;startSize=8;endSize=8;" edge="1" parent="WIyWlLk6GJQsqaUBKTNV-1" source="HEcna5ePVh_66aL4XZZc-3" target="HEcna5ePVh_66aL4XZZc-12">
          <mxGeometry relative="1" as="geometry" />
        </mxCell>
        <mxCell id="HEcna5ePVh_66aL4XZZc-3" value="Reserve" style="rounded=1;whiteSpace=wrap;html=1;fontSize=16;" vertex="1" parent="WIyWlLk6GJQsqaUBKTNV-1">
          <mxGeometry x="660" y="270" width="120" height="60" as="geometry" />
        </mxCell>
        <mxCell id="HEcna5ePVh_66aL4XZZc-5" value="Cancel" style="rounded=1;whiteSpace=wrap;html=1;fontSize=16;" vertex="1" parent="WIyWlLk6GJQsqaUBKTNV-1">
          <mxGeometry x="40" y="270" width="120" height="60" as="geometry" />
        </mxCell>
        <mxCell id="HEcna5ePVh_66aL4XZZc-8" value="Vacations" style="ellipse;whiteSpace=wrap;html=1;fontSize=16;" vertex="1" parent="WIyWlLk6GJQsqaUBKTNV-1">
          <mxGeometry x="305" y="10" width="190" height="80" as="geometry" />
        </mxCell>
        <mxCell id="HEcna5ePVh_66aL4XZZc-27" value="" style="edgeStyle=none;curved=1;rounded=0;orthogonalLoop=1;jettySize=auto;html=1;fontSize=12;startSize=8;endSize=8;" edge="1" parent="WIyWlLk6GJQsqaUBKTNV-1" source="HEcna5ePVh_66aL4XZZc-12" target="HEcna5ePVh_66aL4XZZc-26">
          <mxGeometry relative="1" as="geometry" />
        </mxCell>
        <mxCell id="HEcna5ePVh_66aL4XZZc-12" value="User name" style="shape=parallelogram;perimeter=parallelogramPerimeter;whiteSpace=wrap;html=1;fixedSize=1;fontSize=16;" vertex="1" parent="WIyWlLk6GJQsqaUBKTNV-1">
          <mxGeometry x="660" y="370" width="117" height="60" as="geometry" />
        </mxCell>
        <mxCell id="HEcna5ePVh_66aL4XZZc-13" value="Seats_type_choice" style="shape=parallelogram;perimeter=parallelogramPerimeter;whiteSpace=wrap;html=1;fixedSize=1;fontSize=16;" vertex="1" parent="WIyWlLk6GJQsqaUBKTNV-1">
          <mxGeometry x="620" y="860" width="220" height="60" as="geometry" />
        </mxCell>
        <mxCell id="HEcna5ePVh_66aL4XZZc-30" style="edgeStyle=none;curved=1;rounded=0;orthogonalLoop=1;jettySize=auto;html=1;exitX=0.5;exitY=1;exitDx=0;exitDy=0;entryX=0.5;entryY=0;entryDx=0;entryDy=0;fontSize=12;startSize=8;endSize=8;" edge="1" parent="WIyWlLk6GJQsqaUBKTNV-1" source="HEcna5ePVh_66aL4XZZc-15" target="HEcna5ePVh_66aL4XZZc-17">
          <mxGeometry relative="1" as="geometry" />
        </mxCell>
        <mxCell id="HEcna5ePVh_66aL4XZZc-15" value="Destination" style="shape=parallelogram;perimeter=parallelogramPerimeter;whiteSpace=wrap;html=1;fixedSize=1;fontSize=16;" vertex="1" parent="WIyWlLk6GJQsqaUBKTNV-1">
          <mxGeometry x="657" y="550" width="120" height="60" as="geometry" />
        </mxCell>
        <mxCell id="HEcna5ePVh_66aL4XZZc-33" value="" style="edgeStyle=none;curved=1;rounded=0;orthogonalLoop=1;jettySize=auto;html=1;fontSize=12;startSize=8;endSize=8;" edge="1" parent="WIyWlLk6GJQsqaUBKTNV-1" source="HEcna5ePVh_66aL4XZZc-17" target="HEcna5ePVh_66aL4XZZc-32">
          <mxGeometry relative="1" as="geometry" />
        </mxCell>
        <mxCell id="HEcna5ePVh_66aL4XZZc-17" value="DateGR" style="shape=parallelogram;perimeter=parallelogramPerimeter;whiteSpace=wrap;html=1;fixedSize=1;fontSize=16;" vertex="1" parent="WIyWlLk6GJQsqaUBKTNV-1">
          <mxGeometry x="657" y="640" width="120" height="60" as="geometry" />
        </mxCell>
        <mxCell id="HEcna5ePVh_66aL4XZZc-35" value="" style="edgeStyle=none;curved=1;rounded=0;orthogonalLoop=1;jettySize=auto;html=1;fontSize=12;startSize=8;endSize=8;" edge="1" parent="WIyWlLk6GJQsqaUBKTNV-1" source="HEcna5ePVh_66aL4XZZc-20" target="HEcna5ePVh_66aL4XZZc-13">
          <mxGeometry relative="1" as="geometry" />
        </mxCell>
        <mxCell id="HEcna5ePVh_66aL4XZZc-20" value="number_of_seats" style="shape=parallelogram;perimeter=parallelogramPerimeter;whiteSpace=wrap;html=1;fixedSize=1;fontSize=16;" vertex="1" parent="WIyWlLk6GJQsqaUBKTNV-1">
          <mxGeometry x="640" y="760" width="180" height="60" as="geometry" />
        </mxCell>
        <mxCell id="HEcna5ePVh_66aL4XZZc-29" value="" style="edgeStyle=none;curved=1;rounded=0;orthogonalLoop=1;jettySize=auto;html=1;fontSize=12;startSize=8;endSize=8;entryX=0.5;entryY=0;entryDx=0;entryDy=0;" edge="1" parent="WIyWlLk6GJQsqaUBKTNV-1" source="HEcna5ePVh_66aL4XZZc-26" target="HEcna5ePVh_66aL4XZZc-15">
          <mxGeometry relative="1" as="geometry" />
        </mxCell>
        <mxCell id="HEcna5ePVh_66aL4XZZc-26" value="Salute" style="rounded=0;whiteSpace=wrap;html=1;fontSize=16;" vertex="1" parent="WIyWlLk6GJQsqaUBKTNV-1">
          <mxGeometry x="660" y="460" width="120" height="60" as="geometry" />
        </mxCell>
        <mxCell id="HEcna5ePVh_66aL4XZZc-34" style="edgeStyle=none;curved=1;rounded=0;orthogonalLoop=1;jettySize=auto;html=1;exitX=0.5;exitY=1;exitDx=0;exitDy=0;entryX=0.5;entryY=0;entryDx=0;entryDy=0;fontSize=12;startSize=8;endSize=8;" edge="1" parent="WIyWlLk6GJQsqaUBKTNV-1" source="HEcna5ePVh_66aL4XZZc-32" target="HEcna5ePVh_66aL4XZZc-20">
          <mxGeometry relative="1" as="geometry">
            <Array as="points">
              <mxPoint x="800" y="730" />
            </Array>
          </mxGeometry>
        </mxCell>
        <mxCell id="HEcna5ePVh_66aL4XZZc-32" value="hotel_day_reservation" style="rounded=0;whiteSpace=wrap;html=1;fontSize=16;" vertex="1" parent="WIyWlLk6GJQsqaUBKTNV-1">
          <mxGeometry x="827" y="640" width="210" height="60" as="geometry" />
        </mxCell>
      </root>
    </mxGraphModel>
  </diagram>
</mxfile>
